<svg xmlns="http://www.w3.org/2000/svg" width="196.854" height="51.497" viewBox="0 0 196.854 51.497">
  <g id="Grupo_12" data-name="Grupo 12" transform="translate(-205.294 -2144.542)">
    <path id="path997" d="M0,0H6.664V1.739H1.925V3.626H6.1V5.363H1.925V8.752H0Z" transform="translate(205.294 2187.031)" fill="#979EAF"/>
    <path id="path1001" d="M-5.658-8.83a2.637,2.637,0,0,0,1.063-.213,2.442,2.442,0,0,0,.831-.587,2.778,2.778,0,0,0,.537-.869,2.865,2.865,0,0,0,.193-1.056v-.025a2.931,2.931,0,0,0-.193-1.063,2.657,2.657,0,0,0-.55-.875,2.655,2.655,0,0,0-.844-.594,2.567,2.567,0,0,0-1.063-.219,2.62,2.62,0,0,0-1.069.213,2.436,2.436,0,0,0-.825.587,2.763,2.763,0,0,0-.537.87,2.857,2.857,0,0,0-.194,1.056v.025a2.9,2.9,0,0,0,.194,1.062,2.634,2.634,0,0,0,.55.876,2.66,2.66,0,0,0,.838.594,2.555,2.555,0,0,0,1.069.219m-.025,1.775a4.765,4.765,0,0,1-1.863-.357,4.614,4.614,0,0,1-1.469-.963A4.3,4.3,0,0,1-9.978-9.8a4.49,4.49,0,0,1-.343-1.756v-.025a4.424,4.424,0,0,1,.35-1.756A4.523,4.523,0,0,1-9-14.775a4.477,4.477,0,0,1,1.475-.975,4.811,4.811,0,0,1,1.869-.357,4.768,4.768,0,0,1,1.863.357,4.6,4.6,0,0,1,1.469.963,4.293,4.293,0,0,1,.963,1.426,4.477,4.477,0,0,1,.344,1.756v.025a4.425,4.425,0,0,1-.35,1.757,4.519,4.519,0,0,1-.969,1.437,4.494,4.494,0,0,1-1.475.975,4.816,4.816,0,0,1-1.87.357" transform="translate(223.429 2202.987)" fill="#979EAF"/>
    <path id="path1005" d="M-4.7-5.158A1.6,1.6,0,0,0-3.609-5.5a1.141,1.141,0,0,0,.382-.9v-.026a1.114,1.114,0,0,0-.4-.937A1.767,1.767,0,0,0-4.74-7.671H-6.653v2.513ZM-8.579-9.409h4a3.454,3.454,0,0,1,2.55.889,2.7,2.7,0,0,1,.751,2V-6.5A2.744,2.744,0,0,1-1.8-4.765a3,3,0,0,1-1.357.982L-1.014-.657H-3.265l-1.875-2.8H-6.653v2.8H-8.579Z" transform="translate(232.701 2196.44)" fill="#979EAF"/>
    <path id="path1009" d="M-4.08-6.433l-3.363-5.3h2.25L-3.1-8.221l2.125-3.513H1.209L-2.155-6.471v3.489H-4.08Z" transform="translate(243.455 2198.765)" fill="#979EAF"/>
    <path id="path1013" d="M-5.659-8.83A2.632,2.632,0,0,0-4.6-9.043a2.436,2.436,0,0,0,.831-.587,2.769,2.769,0,0,0,.538-.869,2.865,2.865,0,0,0,.193-1.056v-.025a2.931,2.931,0,0,0-.193-1.063,2.657,2.657,0,0,0-.55-.875,2.657,2.657,0,0,0-.845-.594,2.564,2.564,0,0,0-1.063-.219,2.618,2.618,0,0,0-1.069.213,2.43,2.43,0,0,0-.825.587,2.776,2.776,0,0,0-.538.87,2.869,2.869,0,0,0-.193,1.056v.025a2.913,2.913,0,0,0,.193,1.062,2.645,2.645,0,0,0,.551.876,2.66,2.66,0,0,0,.838.594,2.553,2.553,0,0,0,1.069.219m-.025,1.775a4.765,4.765,0,0,1-1.863-.357,4.617,4.617,0,0,1-1.469-.963A4.3,4.3,0,0,1-9.979-9.8a4.49,4.49,0,0,1-.344-1.756v-.025a4.414,4.414,0,0,1,.351-1.756A4.5,4.5,0,0,1-9-14.775a4.477,4.477,0,0,1,1.475-.975,4.811,4.811,0,0,1,1.869-.357A4.763,4.763,0,0,1-3.8-15.75a4.6,4.6,0,0,1,1.469.963,4.293,4.293,0,0,1,.963,1.426,4.477,4.477,0,0,1,.344,1.756v.025a4.425,4.425,0,0,1-.35,1.757A4.519,4.519,0,0,1-2.34-8.387a4.494,4.494,0,0,1-1.475.975,4.816,4.816,0,0,1-1.87.357" transform="translate(255.798 2202.987)" fill="#979EAF"/>
    <path id="path1017" d="M-4.6-10.786a3.831,3.831,0,0,1-2.775-.975,3.864,3.864,0,0,1-1.013-2.913v-5h1.926v4.951a2.32,2.32,0,0,0,.5,1.619,1.79,1.79,0,0,0,1.387.543,1.827,1.827,0,0,0,1.388-.524,2.21,2.21,0,0,0,.5-1.576v-5.014H-.758v4.939A5.082,5.082,0,0,1-1.027-13a3.268,3.268,0,0,1-.77,1.231,3.143,3.143,0,0,1-1.213.738,4.893,4.893,0,0,1-1.587.244" transform="translate(264.738 2206.706)" fill="#979EAF"/>
    <path id="path1021" d="M-4.7-5.158A1.6,1.6,0,0,0-3.609-5.5a1.141,1.141,0,0,0,.381-.9v-.026a1.113,1.113,0,0,0-.4-.937A1.764,1.764,0,0,0-4.74-7.671H-6.653v2.513ZM-8.579-9.409h4a3.454,3.454,0,0,1,2.551.889,2.7,2.7,0,0,1,.751,2V-6.5A2.748,2.748,0,0,1-1.8-4.765a3,3,0,0,1-1.357.982L-1.015-.657H-3.265l-1.875-2.8H-6.653v2.8H-8.579Z" transform="translate(274.521 2196.44)" fill="#979EAF"/>
    <path id="path1025" d="M-4.141-8.51A2.985,2.985,0,0,0-3.066-8.7a2.322,2.322,0,0,0,.831-.537A2.553,2.553,0,0,0-1.7-10.06,2.8,2.8,0,0,0-1.5-11.123v-.026A2.861,2.861,0,0,0-1.7-12.211a2.519,2.519,0,0,0-.537-.837,2.4,2.4,0,0,0-.831-.544,2.91,2.91,0,0,0-1.076-.193H-5.629V-8.51Zm-3.413-7.014h3.413a5.175,5.175,0,0,1,1.882.331,4.444,4.444,0,0,1,1.475.919,4.1,4.1,0,0,1,.957,1.382A4.354,4.354,0,0,1,.51-11.173v.025A4.394,4.394,0,0,1,.172-9.423,4.067,4.067,0,0,1-.784-8.035,4.52,4.52,0,0,1-2.26-7.11a5.088,5.088,0,0,1-1.882.337H-7.555Z" transform="translate(286.782 2202.548)" fill="#979EAF"/>
    <path id="path1027" d="M373.77-547.78H375.7v8.751H373.77Z" transform="translate(-84.677 2734.804)" fill="#979EAF"/>
    <path id="path1031" d="M-4.506-10.922a5.806,5.806,0,0,1-1.963-.343A5.224,5.224,0,0,1-8.22-12.323l1.138-1.363a5.683,5.683,0,0,0,1.232.775,3.285,3.285,0,0,0,1.381.288,1.677,1.677,0,0,0,.931-.219.689.689,0,0,0,.331-.607v-.025a.751.751,0,0,0-.069-.331.7.7,0,0,0-.264-.269,2.778,2.778,0,0,0-.539-.251q-.344-.125-.9-.263a10.79,10.79,0,0,1-1.2-.362,3.425,3.425,0,0,1-.915-.493,1.993,1.993,0,0,1-.583-.731,2.535,2.535,0,0,1-.207-1.089v-.025a2.531,2.531,0,0,1,.224-1.081,2.446,2.446,0,0,1,.627-.831,2.8,2.8,0,0,1,.964-.538,3.867,3.867,0,0,1,1.236-.187,5.235,5.235,0,0,1,1.769.287,5.146,5.146,0,0,1,1.481.825l-1,1.451a6.424,6.424,0,0,0-1.151-.632,2.95,2.95,0,0,0-1.125-.231,1.365,1.365,0,0,0-.844.218.667.667,0,0,0-.281.545v.025a.787.787,0,0,0,.081.369.741.741,0,0,0,.295.282,2.832,2.832,0,0,0,.583.237q.37.112.934.262a9.034,9.034,0,0,1,1.185.394,3.3,3.3,0,0,1,.878.525,2,2,0,0,1,.539.719,2.439,2.439,0,0,1,.182.988v.025a2.712,2.712,0,0,1-.236,1.157,2.365,2.365,0,0,1-.658.85,2.971,2.971,0,0,1-1.008.525,4.388,4.388,0,0,1-1.3.181" transform="translate(300.838 2206.823)" fill="#979EAF"/>
    <path id="path1035" d="M-4.7-5.158A1.593,1.593,0,0,0-3.609-5.5a1.141,1.141,0,0,0,.381-.9v-.025a1.116,1.116,0,0,0-.4-.937A1.771,1.771,0,0,0-4.74-7.671H-6.653v2.513ZM-8.579-9.409h4a3.454,3.454,0,0,1,2.551.888,2.7,2.7,0,0,1,.751,2V-6.5A2.743,2.743,0,0,1-1.8-4.765a3,3,0,0,1-1.357.982L-1.014-.658H-3.265l-1.875-2.8H-6.653v2.8H-8.579Z" transform="translate(309.786 2196.434)" fill="#979EAF"/>
    <path id="path1039" d="M-4.6-10.786a3.831,3.831,0,0,1-2.775-.975,3.863,3.863,0,0,1-1.013-2.913v-5h1.926v4.951a2.319,2.319,0,0,0,.5,1.619,1.788,1.788,0,0,0,1.387.543,1.827,1.827,0,0,0,1.388-.524,2.208,2.208,0,0,0,.5-1.576v-5.013H-.758v4.939A5.082,5.082,0,0,1-1.027-13a3.278,3.278,0,0,1-.77,1.231,3.143,3.143,0,0,1-1.213.738,4.877,4.877,0,0,1-1.587.244" transform="translate(318.494 2206.699)" fill="#979EAF"/>
    <path id="path1043" d="M-4.187-5.355a1.564,1.564,0,0,0,1.125-.382,1.25,1.25,0,0,0,.4-.944v-.025a1.2,1.2,0,0,0-.419-.988A1.776,1.776,0,0,0-4.224-8.03H-5.712v2.675ZM-7.637-9.768h3.576a4.223,4.223,0,0,1,1.407.218,2.987,2.987,0,0,1,1.05.619,2.715,2.715,0,0,1,.663.956A3.185,3.185,0,0,1-.711-6.743v.025A3.076,3.076,0,0,1-.986-5.379a2.752,2.752,0,0,1-.757.962,3.289,3.289,0,0,1-1.125.581,4.764,4.764,0,0,1-1.381.193H-5.712v2.626H-7.637Z" transform="translate(327.336 2196.792)" fill="#979EAF"/>
    <path id="path1047" d="M-3.231-2.153H-5.895V-3.928H1.357v1.775H-1.306V4.823H-3.231Z" transform="translate(333.319 2190.953)" fill="#979EAF"/>
    <path id="path1049" d="M478.121-547.78h1.925v8.751h-1.925Z" transform="translate(-141.882 2734.804)" fill="#979EAF"/>
    <path id="path1053" d="M0,0H2.125L4.413,6.163,6.7,0H8.776L5.239,8.814h-1.7Z" transform="translate(339.603 2187.024)" fill="#979EAF"/>
    <path id="path1057" d="M0,0H6.589V1.713H1.9V3.488H6.026V5.2H1.9V7.038H6.651V8.751H0Z" transform="translate(349.729 2187.024)" fill="#979EAF"/>
    <path id="path1059" d="M538.852-547.476h1.926v8.752h-1.926Z" transform="translate(-175.174 2734.638)" fill="#979EAF"/>
    <path id="path1063" d="M-4.141-8.51A2.981,2.981,0,0,0-3.066-8.7a2.325,2.325,0,0,0,.832-.537A2.557,2.557,0,0,0-1.7-10.06,2.806,2.806,0,0,0-1.5-11.123v-.026A2.863,2.863,0,0,0-1.7-12.211a2.519,2.519,0,0,0-.537-.837,2.4,2.4,0,0,0-.832-.543,2.894,2.894,0,0,0-1.075-.194H-5.629V-8.51Zm-3.413-7.014h3.413a5.172,5.172,0,0,1,1.882.331,4.436,4.436,0,0,1,1.475.919,4.092,4.092,0,0,1,.957,1.382A4.35,4.35,0,0,1,.51-11.173v.024A4.394,4.394,0,0,1,.172-9.423,4.067,4.067,0,0,1-.784-8.035,4.52,4.52,0,0,1-2.26-7.11a5.086,5.086,0,0,1-1.882.338H-7.555Z" transform="translate(375.345 2202.685)" fill="#979EAF"/>
    <path id="path1067" d="M0,0H6.589V1.713H1.9V3.489H6.026V5.2H1.9V7.038H6.651V8.752H0Z" transform="translate(377.568 2187.162)" fill="#979EAF"/>
    <path id="path1071" d="M-7.008-6.251-8.171-9.089-9.333-6.251ZM-9.033-11.4h1.775l3.751,8.815H-5.52l-.8-1.963h-3.7l-.8,1.963h-1.963Z" transform="translate(397.978 2198.501)" fill="#979EAF"/>
    <path id="path1075" d="M-4.505-10.923a5.807,5.807,0,0,1-1.963-.344,5.2,5.2,0,0,1-1.75-1.057l1.138-1.363a5.62,5.62,0,0,0,1.231.775,3.287,3.287,0,0,0,1.381.288,1.673,1.673,0,0,0,.931-.219.689.689,0,0,0,.331-.607v-.025a.751.751,0,0,0-.069-.331.691.691,0,0,0-.264-.269,2.817,2.817,0,0,0-.539-.25q-.345-.125-.9-.263a10.764,10.764,0,0,1-1.2-.362,3.4,3.4,0,0,1-.915-.493,2,2,0,0,1-.583-.731,2.542,2.542,0,0,1-.207-1.088v-.025a2.533,2.533,0,0,1,.224-1.082A2.451,2.451,0,0,1-7.03-19.2a2.8,2.8,0,0,1,.964-.537,3.85,3.85,0,0,1,1.236-.188,5.235,5.235,0,0,1,1.769.287,5.146,5.146,0,0,1,1.481.825l-1,1.451a6.394,6.394,0,0,0-1.15-.631,2.939,2.939,0,0,0-1.125-.231,1.365,1.365,0,0,0-.844.219.666.666,0,0,0-.281.545v.025a.779.779,0,0,0,.082.368.728.728,0,0,0,.294.282,2.8,2.8,0,0,0,.583.237q.37.113.934.263a8.829,8.829,0,0,1,1.185.394,3.288,3.288,0,0,1,.877.525,2,2,0,0,1,.539.719,2.441,2.441,0,0,1,.182.988v.025a2.717,2.717,0,0,1-.236,1.157,2.377,2.377,0,0,1-.658.85,2.97,2.97,0,0,1-1.008.525,4.39,4.39,0,0,1-1.3.182" transform="translate(403.452 2206.962)" fill="#979EAF"/>
    <path id="path1541" d="M-4.362-10.365c0-.7-.442-1.092-1.217-1.092H-7.957v-7.451H1.5c2.822,0,4.039,1.093,4.039,3.626V8.061c0,.7.443,1.093,1.217,1.093h5.2c.775,0,1.217-.4,1.217-1.093V6.124h8.851v6.854c0,2.533-1.217,3.625-4.038,3.625H-.324c-2.82,0-4.038-1.093-4.038-3.625Z" transform="translate(329.177 2163.45)" fill="#979EAF"/>
    <path id="path1545" d="M0,0H8.592V11.225c0,1.291-.1,2.185-.1,2.185h.1a8.784,8.784,0,0,1,7.8-4.072c5.164,0,9.187,2.383,9.187,9.585V35.511H16.985v-15c0-2.384-.943-3.378-2.831-3.378a5.161,5.161,0,0,0-5.116,3.775,9.884,9.884,0,0,0-.447,3.278V35.511H0Z" transform="translate(205.294 2145.149)" fill="#979EAF"/>
    <path id="path1549" d="M-19.155-11.769a3.334,3.334,0,0,0-3.234-3.519c-2.377,0-3.518,1.711-3.946,3.519Zm-3.043-9.7c7.228,0,11.317,5.04,11.317,11.84,0,.809-.19,2.568-.19,2.568H-26.524a5.467,5.467,0,0,0,5.705,4.375A12.84,12.84,0,0,0-14.066-5.16L-11.023.594A16.537,16.537,0,0,1-21.484,4.16c-8.749,0-13.457-6.325-13.457-12.838,0-7.18,4.851-12.791,12.743-12.791" transform="translate(264.619 2176.5)" fill="#979EAF"/>
    <path id="path1553" d="M-10-15.669l-8.245-12.914h9.685l2.781,5.712c.348.645.795,1.689.795,1.689h.1s.5-1.043.795-1.689l2.781-5.712H8.372L.177-15.669,8.223-3H-1.213l-3.08-5.761c-.248-.446-.6-1.291-.6-1.291h-.1s-.348.845-.6,1.291L-8.614-3H-18.05Z" transform="translate(268.706 2183.665)" fill="#979EAF"/>
    <path id="path1557" d="M-13.438-24.526c2.235,0,4.221-2.434,4.221-4.519v-.547h-.794c-2.732,0-5.861.8-5.861,2.931,0,1.192.746,2.136,2.434,2.136m3.775-9.982h.348v-.447c0-2.136-1.639-2.831-3.775-2.831-3.228,0-6.9,2.434-6.9,2.434l-2.98-6.059A19.343,19.343,0,0,1-12.246-44.74c7.2,0,11.522,3.923,11.522,10.43v15.744H-8.571v-1.54a13.432,13.432,0,0,1,.1-1.589h-.1s-1.887,3.725-7.251,3.725c-4.768,0-8.691-3.179-8.691-8.245,0-7.449,10.876-8.294,14.85-8.294" transform="translate(300.166 2198.593)" fill="#979EAF"/>
    <path id="path1561" d="M-3.154-10.923l-2.6-4.5,2.6-4.5h5.2l2.6,4.5-2.6,4.5Z" transform="translate(310.886 2183.839)" fill="#979EAF"/>
    <path id="path1565" d="M-24.1-25.31l-1.788-5.91c-.7-2.235-1.44-5.861-1.44-5.861h-.1s-.746,3.626-1.441,5.861l-1.787,5.91Zm-19.866,7.2h.943c.794,0,1.043-.248,1.341-1.092L-32-46.171h9.237L-13.078-19.2c.3.844.546,1.092,1.341,1.092h.944v7.45H-16.5c-2.483,0-3.476-.745-4.172-2.88l-1.54-4.57H-32.547l-1.539,4.57c-.7,2.135-1.689,2.88-4.172,2.88h-5.711Z" transform="translate(389.931 2190.713)" fill="#979EAF"/>
    <path id="path1569" d="M-16.03-34.048h3.179a3.411,3.411,0,0,0,3.526-3.725A3.3,3.3,0,0,0-12.8-41.4h-4.321v6.258a.994.994,0,0,0,1.093,1.092m2.434-14.3a2.981,2.981,0,0,0,3.029-3.278,2.856,2.856,0,0,0-3.178-3.029h-3.378v6.307Zm-12.417-6.307h-3.228v-7.451H-13.7c7.1,0,12.069,3.179,12.069,9.287A8.516,8.516,0,0,1-5.75-45.273v.1c4.073,1.241,5.563,4.867,5.563,8C-.187-29.429-6.643-26.6-13.7-26.6h-8.691c-2.533,0-3.626-1.093-3.626-3.625Z" transform="translate(402.334 2206.652)" fill="#979EAF"/>
  </g>
</svg>
